<?xml version="1.0" encoding="UTF-8"?>
<level>
  <owner>stolbitsa</owner>
  <repo>subdominant-low-4</repo>
  <version>v1.0.3</version>
  <next number="1" owner="stolbitsa" repo="subdominant-harmonic-0"/>
  <readme>
    <ru>ad4c8e389e3a9da2c8104b8f52ddaea4d35c5a058ec3488b7d87c2ec777d8c9d</ru>
    <en>0a754dcd421dc7aefb7e0b6c51120d17adf6993b32c6f070800378ba78e13afc</en>
  </readme>
  <license>b1b99f5538d1fd3702219bff50c665196dfa42f6ee755c37fe41a6178d6bc6e5</license>
  <exercise number="1">
    <scale>major</scale>
    <bpm>80</bpm>
    <lowestNote>84</lowestNote>
    <tonalities>1,2,3,4,5,6,7,8,9,10,11,12</tonalities>
    <notes>
      <note number="1" values="1,4,84,85" ticks="0" durationTicks="105" ppq="96" velocity="0.843"/>
      <note number="2" values="1,4,84,85" ticks="56" durationTicks="91" ppq="96" velocity="0.913"/>
      <note number="3" values="1,4,84,85" ticks="146" durationTicks="208" ppq="96" velocity="0.874"/>
      <note number="4" values="1,4,84,85" ticks="196" durationTicks="161" ppq="96" velocity="0.921"/>
    </notes>
  </exercise>
  <exercise number="2">
    <scale>major</scale>
    <bpm>80</bpm>
    <lowestNote>84</lowestNote>
    <tonalities>1,2,3,4,5,6,7,8,9,10,11,12</tonalities>
    <notes>
      <note number="1" values="1,4,84,85" ticks="0" durationTicks="105" ppq="96" velocity="0.843"/>
      <note number="2" values="1,4,84,85" ticks="56" durationTicks="91" ppq="96" velocity="0.913"/>
      <note number="3" values="1,4,84,85" ticks="146" durationTicks="208" ppq="96" velocity="0.874"/>
      <note number="4" values="1,4,84,85" ticks="196" durationTicks="161" ppq="96" velocity="0.921"/>
    </notes>
  </exercise>
  <exercise number="3">
    <scale>major</scale>
    <bpm>80</bpm>
    <lowestNote>84</lowestNote>
    <tonalities>1,2,3,4,5,6,7,8,9,10,11,12</tonalities>
    <notes>
      <note number="1" values="1,4,84,85" ticks="0" durationTicks="105" ppq="96" velocity="0.843"/>
      <note number="2" values="1,4,84,85" ticks="56" durationTicks="91" ppq="96" velocity="0.913"/>
      <note number="3" values="1,4,84,85" ticks="146" durationTicks="208" ppq="96" velocity="0.874"/>
      <note number="4" values="1,4,84,85" ticks="196" durationTicks="161" ppq="96" velocity="0.921"/>
    </notes>
  </exercise>
  <exercise number="4">
    <scale>major</scale>
    <bpm>80</bpm>
    <lowestNote>84</lowestNote>
    <tonalities>1,2,3,4,5,6,7,8,9,10,11,12</tonalities>
    <notes>
      <note number="1" values="1,4,84,85" ticks="0" durationTicks="105" ppq="96" velocity="0.843"/>
      <note number="2" values="1,4,84,85" ticks="56" durationTicks="91" ppq="96" velocity="0.913"/>
      <note number="3" values="1,4,84,85" ticks="146" durationTicks="208" ppq="96" velocity="0.874"/>
      <note number="4" values="1,4,84,85" ticks="196" durationTicks="161" ppq="96" velocity="0.921"/>
    </notes>
  </exercise>
  <exercise number="5">
    <scale>major</scale>
    <bpm>80</bpm>
    <lowestNote>84</lowestNote>
    <tonalities>1,2,3,4,5,6,7,8,9,10,11,12</tonalities>
    <notes>
      <note number="1" values="1,4,84,85" ticks="0" durationTicks="105" ppq="96" velocity="0.843"/>
      <note number="2" values="1,4,84,85" ticks="56" durationTicks="91" ppq="96" velocity="0.913"/>
      <note number="3" values="1,4,84,85" ticks="146" durationTicks="208" ppq="96" velocity="0.874"/>
      <note number="4" values="1,4,84,85" ticks="196" durationTicks="161" ppq="96" velocity="0.921"/>
    </notes>
  </exercise>
  <exercise number="6">
    <scale>major</scale>
    <bpm>80</bpm>
    <lowestNote>84</lowestNote>
    <tonalities>1,2,3,4,5,6,7,8,9,10,11,12</tonalities>
    <notes>
      <note number="1" values="1,4,84,85" ticks="0" durationTicks="105" ppq="96" velocity="0.843"/>
      <note number="2" values="1,4,84,85" ticks="56" durationTicks="91" ppq="96" velocity="0.913"/>
      <note number="3" values="1,4,84,85" ticks="146" durationTicks="208" ppq="96" velocity="0.874"/>
      <note number="4" values="1,4,84,85" ticks="196" durationTicks="161" ppq="96" velocity="0.921"/>
    </notes>
  </exercise>
  <exercise number="7">
    <scale>major</scale>
    <bpm>80</bpm>
    <lowestNote>84</lowestNote>
    <tonalities>1,2,3,4,5,6,7,8,9,10,11,12</tonalities>
    <notes>
      <note number="1" values="1,4,84,85" ticks="0" durationTicks="105" ppq="96" velocity="0.843"/>
      <note number="2" values="1,4,84,85" ticks="56" durationTicks="91" ppq="96" velocity="0.913"/>
      <note number="3" values="1,4,84,85" ticks="146" durationTicks="208" ppq="96" velocity="0.874"/>
      <note number="4" values="1,4,84,85" ticks="196" durationTicks="161" ppq="96" velocity="0.921"/>
    </notes>
  </exercise>
  <exercise number="8">
    <scale>major</scale>
    <bpm>80</bpm>
    <lowestNote>84</lowestNote>
    <tonalities>1,2,3,4,5,6,7,8,9,10,11,12</tonalities>
    <notes>
      <note number="1" values="1,4,84,85" ticks="0" durationTicks="105" ppq="96" velocity="0.843"/>
      <note number="2" values="1,4,84,85" ticks="56" durationTicks="91" ppq="96" velocity="0.913"/>
      <note number="3" values="1,4,84,85" ticks="146" durationTicks="208" ppq="96" velocity="0.874"/>
      <note number="4" values="1,4,84,85" ticks="196" durationTicks="161" ppq="96" velocity="0.921"/>
    </notes>
  </exercise>
  <exercise number="9">
    <scale>major</scale>
    <bpm>80</bpm>
    <lowestNote>84</lowestNote>
    <tonalities>1,2,3,4,5,6,7,8,9,10,11,12</tonalities>
    <notes>
      <note number="1" values="1,4,84,85" ticks="0" durationTicks="105" ppq="96" velocity="0.843"/>
      <note number="2" values="1,4,84,85" ticks="56" durationTicks="91" ppq="96" velocity="0.913"/>
      <note number="3" values="1,4,84,85" ticks="146" durationTicks="208" ppq="96" velocity="0.874"/>
      <note number="4" values="1,4,84,85" ticks="196" durationTicks="161" ppq="96" velocity="0.921"/>
    </notes>
  </exercise>
  <exercise number="10">
    <scale>major</scale>
    <bpm>80</bpm>
    <lowestNote>84</lowestNote>
    <tonalities>1,2,3,4,5,6,7,8,9,10,11,12</tonalities>
    <notes>
      <note number="1" values="1,4,84,85" ticks="0" durationTicks="105" ppq="96" velocity="0.843"/>
      <note number="2" values="1,4,84,85" ticks="56" durationTicks="91" ppq="96" velocity="0.913"/>
      <note number="3" values="1,4,84,85" ticks="146" durationTicks="208" ppq="96" velocity="0.874"/>
      <note number="4" values="1,4,84,85" ticks="196" durationTicks="161" ppq="96" velocity="0.921"/>
    </notes>
  </exercise>
</level>
